<svg width="138" height="23" viewBox="0 0 138 23" fill="none" xmlns="http://www.w3.org/2000/svg">
<mask id="path-1-outside-1_4_11" maskUnits="userSpaceOnUse" x="-1" y="-2" width="140" height="27" fill="black">
<rect fill="white" x="-1" y="-2" width="140" height="27"/>
<path d="M16.1477 0.545454V18H11.4773V4.29545H5.57955V18H0.909091V0.545454H16.1477ZM19.2479 22.9091V4.90909H23.9183V7.19318H24.0206C24.1911 6.75 24.4411 6.34375 24.7706 5.97443C25.1001 5.59943 25.5092 5.30114 25.9979 5.07954C26.4865 4.85227 27.0547 4.73864 27.7024 4.73864C28.5661 4.73864 29.3871 4.96875 30.1655 5.42898C30.9496 5.8892 31.5859 6.61364 32.0746 7.60227C32.5689 8.59091 32.8161 9.875 32.8161 11.4545C32.8161 12.9659 32.5803 14.2187 32.1087 15.2131C31.6428 16.2074 31.0178 16.9489 30.2337 17.4375C29.4553 17.9261 28.6001 18.1705 27.6683 18.1705C27.0547 18.1705 26.5064 18.071 26.0234 17.8722C25.5462 17.6676 25.1371 17.392 24.7962 17.0455C24.4609 16.6932 24.2024 16.2955 24.0206 15.8523H23.9524V22.9091H19.2479ZM23.8501 11.4545C23.8501 12.0909 23.9325 12.642 24.0973 13.108C24.2678 13.5682 24.5064 13.9261 24.8132 14.1818C25.1257 14.4318 25.4979 14.5568 25.9297 14.5568C26.3615 14.5568 26.728 14.4347 27.0291 14.1903C27.3359 13.9403 27.5689 13.5852 27.728 13.125C27.8928 12.6591 27.9751 12.1023 27.9751 11.4545C27.9751 10.8068 27.8928 10.2528 27.728 9.79261C27.5689 9.3267 27.3359 8.97159 27.0291 8.72727C26.728 8.47727 26.3615 8.35227 25.9297 8.35227C25.4979 8.35227 25.1257 8.47727 24.8132 8.72727C24.5064 8.97159 24.2678 9.3267 24.0973 9.79261C23.9325 10.2528 23.8501 10.8068 23.8501 11.4545ZM41.0938 18.2386C39.6733 18.2386 38.4574 17.9574 37.446 17.3949C36.4347 16.8267 35.6591 16.0369 35.1193 15.0256C34.5795 14.0085 34.3097 12.8295 34.3097 11.4886C34.3097 10.1477 34.5795 8.97159 35.1193 7.96023C35.6591 6.94318 36.4347 6.15341 37.446 5.59091C38.4574 5.02273 39.6733 4.73864 41.0938 4.73864C42.5142 4.73864 43.7301 5.02273 44.7415 5.59091C45.7528 6.15341 46.5284 6.94318 47.0682 7.96023C47.608 8.97159 47.8778 10.1477 47.8778 11.4886C47.8778 12.8295 47.608 14.0085 47.0682 15.0256C46.5284 16.0369 45.7528 16.8267 44.7415 17.3949C43.7301 17.9574 42.5142 18.2386 41.0938 18.2386ZM41.1278 14.7614C41.5256 14.7614 41.8693 14.6278 42.1591 14.3608C42.4489 14.0937 42.6733 13.7131 42.8324 13.2188C42.9915 12.7244 43.071 12.1364 43.071 11.4545C43.071 10.767 42.9915 10.179 42.8324 9.69034C42.6733 9.19602 42.4489 8.81534 42.1591 8.5483C41.8693 8.28125 41.5256 8.14773 41.1278 8.14773C40.7074 8.14773 40.3466 8.28125 40.0455 8.5483C39.7443 8.81534 39.5142 9.19602 39.3551 9.69034C39.196 10.179 39.1165 10.767 39.1165 11.4545C39.1165 12.1364 39.196 12.7244 39.3551 13.2188C39.5142 13.7131 39.7443 14.0937 40.0455 14.3608C40.3466 14.6278 40.7074 14.7614 41.1278 14.7614ZM48.7876 8.42045V4.90909H61.4695V8.42045H57.3104V18H52.8786V8.42045H48.7876ZM69.1612 18.2386C67.7635 18.2386 66.5589 17.9716 65.5476 17.4375C64.5419 16.8977 63.7663 16.125 63.2209 15.1193C62.6811 14.108 62.4112 12.8977 62.4112 11.4886C62.4112 10.1364 62.6839 8.95455 63.2294 7.94318C63.7749 6.93182 64.5447 6.14489 65.5391 5.58239C66.5334 5.01989 67.7067 4.73864 69.0589 4.73864C70.0476 4.73864 70.9425 4.89205 71.7436 5.19886C72.5447 5.50568 73.2294 5.9517 73.7976 6.53693C74.3658 7.11648 74.8033 7.82102 75.1101 8.65057C75.4169 9.48011 75.5703 10.4148 75.5703 11.4545V12.5455H63.8771V9.95455H71.2408C71.2351 9.57955 71.1385 9.25 70.951 8.96591C70.7692 8.67614 70.522 8.4517 70.2095 8.29261C69.9027 8.12784 69.5533 8.04545 69.1612 8.04545C68.7805 8.04545 68.4311 8.12784 68.1129 8.29261C67.7947 8.4517 67.5391 8.6733 67.3459 8.95739C67.1584 9.24148 67.0589 9.57386 67.0476 9.95455V12.75C67.0476 13.1705 67.1357 13.5455 67.3118 13.875C67.4879 14.2045 67.7408 14.4631 68.0703 14.6506C68.3999 14.8381 68.7976 14.9318 69.2635 14.9318C69.5874 14.9318 69.8828 14.8864 70.1499 14.7955C70.4226 14.7045 70.6555 14.5739 70.8487 14.4034C71.0419 14.2273 71.1839 14.017 71.2749 13.7727H75.5703C75.4226 14.6818 75.0732 15.4716 74.522 16.142C73.9709 16.8068 73.2408 17.3239 72.3317 17.6932C71.4283 18.0568 70.3714 18.2386 69.1612 18.2386ZM81.9219 12L85.5696 4.90909H90.0014V18H85.5696V10.875L81.9219 18H77.4901V4.90909H81.9219V12ZM85.4332 0.204545H88.3991C88.3935 1.3125 87.9702 2.19886 87.1293 2.86364C86.2884 3.52273 85.1548 3.85227 83.7287 3.85227C82.2912 3.85227 81.152 3.52273 80.3111 2.86364C79.4702 2.19886 79.0526 1.3125 79.0582 0.204545H81.9901C81.9844 0.5625 82.1122 0.892045 82.3736 1.19318C82.6406 1.48864 83.0923 1.63636 83.7287 1.63636C84.3366 1.63636 84.7713 1.49148 85.0327 1.2017C85.294 0.911931 85.4276 0.579545 85.4332 0.204545ZM93.3849 0.545454H97.9531V6.03409C97.9531 6.57955 98.0469 7.02557 98.2344 7.37216C98.4276 7.71875 98.7486 7.97443 99.1974 8.1392C99.652 8.30398 100.271 8.38636 101.055 8.38636C101.197 8.38636 101.428 8.38352 101.746 8.37784C102.07 8.36648 102.419 8.35227 102.794 8.33523C103.169 8.3125 103.513 8.28693 103.825 8.25852C104.143 8.22443 104.368 8.1875 104.499 8.14773V11.7273C104.351 11.7784 104.107 11.8239 103.766 11.8636C103.425 11.8977 103.058 11.929 102.666 11.9574C102.28 11.9801 101.933 12 101.626 12.017C101.32 12.0284 101.129 12.0341 101.055 12.0341C99.5213 12.0341 98.1776 11.8153 97.0241 11.3778C95.8707 10.9403 94.9759 10.2784 94.3395 9.39205C93.7031 8.50568 93.3849 7.38636 93.3849 6.03409V0.545454ZM103.612 0.545454H108.214V18H103.612V0.545454ZM115.192 18.2045C114.357 18.2045 113.619 18.0682 112.977 17.7955C112.34 17.517 111.84 17.0966 111.477 16.5341C111.113 15.9716 110.931 15.2557 110.931 14.3864C110.931 13.6705 111.053 13.0597 111.298 12.554C111.542 12.0426 111.883 11.625 112.32 11.3011C112.758 10.9773 113.266 10.7301 113.846 10.5597C114.431 10.3892 115.062 10.2784 115.738 10.2273C116.471 10.1705 117.059 10.1023 117.502 10.0227C117.951 9.9375 118.275 9.82102 118.474 9.6733C118.673 9.51989 118.772 9.31818 118.772 9.06818V9.03409C118.772 8.69318 118.641 8.43182 118.38 8.25C118.119 8.06818 117.783 7.97727 117.374 7.97727C116.925 7.97727 116.559 8.0767 116.275 8.27557C115.996 8.46875 115.829 8.76705 115.772 9.17045H111.442C111.499 8.375 111.752 7.64205 112.201 6.97159C112.656 6.29545 113.317 5.75568 114.187 5.35227C115.056 4.94318 116.141 4.73864 117.442 4.73864C118.38 4.73864 119.221 4.84943 119.965 5.07102C120.71 5.28693 121.343 5.59091 121.866 5.98295C122.388 6.36932 122.786 6.82386 123.059 7.34659C123.337 7.86364 123.477 8.42614 123.477 9.03409V18H119.079V16.1591H118.977C118.715 16.6477 118.397 17.0426 118.022 17.3438C117.653 17.6449 117.229 17.8636 116.752 18C116.281 18.1364 115.761 18.2045 115.192 18.2045ZM116.727 15.2386C117.085 15.2386 117.42 15.1648 117.732 15.017C118.05 14.8693 118.309 14.6562 118.508 14.3778C118.707 14.0994 118.806 13.7614 118.806 13.3636V12.2727C118.681 12.3239 118.548 12.3722 118.406 12.4176C118.269 12.4631 118.121 12.5057 117.962 12.5455C117.809 12.5852 117.644 12.6222 117.468 12.6562C117.298 12.6903 117.119 12.7216 116.931 12.75C116.567 12.8068 116.269 12.9006 116.036 13.0312C115.809 13.1562 115.638 13.3125 115.525 13.5C115.417 13.6818 115.363 13.8864 115.363 14.1136C115.363 14.4773 115.491 14.7557 115.746 14.9489C116.002 15.142 116.329 15.2386 116.727 15.2386ZM124.725 8.42045V4.90909H137.407V8.42045H133.248V18H128.816V8.42045H124.725Z"/>
</mask>
<path d="M16.1477 0.545454H17.6477V-0.954546H16.1477V0.545454ZM16.1477 18V19.5H17.6477V18H16.1477ZM11.4773 18H9.97727V19.5H11.4773V18ZM11.4773 4.29545H12.9773V2.79545H11.4773V4.29545ZM5.57955 4.29545V2.79545H4.07955V4.29545H5.57955ZM5.57955 18V19.5H7.07955V18H5.57955ZM0.909091 18H-0.590909V19.5H0.909091V18ZM0.909091 0.545454V-0.954546H-0.590909V0.545454H0.909091ZM14.6477 0.545454V18H17.6477V0.545454H14.6477ZM16.1477 16.5H11.4773V19.5H16.1477V16.5ZM12.9773 18V4.29545H9.97727V18H12.9773ZM11.4773 2.79545H5.57955V5.79545H11.4773V2.79545ZM4.07955 4.29545V18H7.07955V4.29545H4.07955ZM5.57955 16.5H0.909091V19.5H5.57955V16.5ZM2.40909 18V0.545454H-0.590909V18H2.40909ZM0.909091 2.04545H16.1477V-0.954546H0.909091V2.04545ZM19.2479 22.9091H17.7479V24.4091H19.2479V22.9091ZM19.2479 4.90909V3.40909H17.7479V4.90909H19.2479ZM23.9183 4.90909H25.4183V3.40909H23.9183V4.90909ZM23.9183 7.19318H22.4183V8.69318H23.9183V7.19318ZM24.0206 7.19318V8.69318H25.0508L25.4206 7.73165L24.0206 7.19318ZM24.7706 5.97443L25.8898 6.97314L25.8973 6.9646L24.7706 5.97443ZM25.9979 5.07954L26.6174 6.44564L26.6239 6.44266L26.6305 6.43963L25.9979 5.07954ZM30.1655 5.42898L29.4021 6.72019L29.4062 6.7226L30.1655 5.42898ZM32.0746 7.60227L30.7298 8.26691L30.7329 8.27309L32.0746 7.60227ZM32.1087 15.2131L30.7534 14.5703L30.7504 14.5766L32.1087 15.2131ZM30.2337 17.4375L29.4403 16.1645L29.4362 16.1671L30.2337 17.4375ZM26.0234 17.8722L25.4326 19.2509L25.4424 19.2551L25.4523 19.2592L26.0234 17.8722ZM24.7962 17.0455L23.7095 18.0795L23.7181 18.0885L23.7268 18.0973L24.7962 17.0455ZM24.0206 15.8523L25.4083 15.2829L25.0265 14.3523H24.0206V15.8523ZM23.9524 15.8523V14.3523H22.4524V15.8523H23.9524ZM23.9524 22.9091V24.4091H25.4524V22.9091H23.9524ZM24.0973 13.108L22.6831 13.6081L22.6868 13.6185L22.6907 13.6289L24.0973 13.108ZM24.8132 14.1818L23.8529 15.3341L23.8645 15.3438L23.8762 15.3531L24.8132 14.1818ZM27.0291 14.1903L27.9742 15.3552L27.9766 15.3532L27.0291 14.1903ZM27.728 13.125L26.3138 12.6249L26.3103 12.6349L27.728 13.125ZM27.728 9.79261L26.3085 10.2773L26.312 10.2878L26.3158 10.2982L27.728 9.79261ZM27.0291 8.72727L26.071 9.88139L26.0828 9.89116L26.0947 9.90069L27.0291 8.72727ZM24.8132 8.72727L25.7476 9.90069L25.7503 9.89858L24.8132 8.72727ZM24.0973 9.79261L22.6886 9.27723L22.6851 9.287L24.0973 9.79261ZM20.7479 22.9091V4.90909H17.7479V22.9091H20.7479ZM19.2479 6.40909H23.9183V3.40909H19.2479V6.40909ZM22.4183 4.90909V7.19318H25.4183V4.90909H22.4183ZM23.9183 8.69318H24.0206V5.69318H23.9183V8.69318ZM25.4206 7.73165C25.5233 7.4647 25.6757 7.21306 25.8898 6.97311L23.6514 4.97575C23.2064 5.47444 22.8588 6.0353 22.6206 6.65471L25.4206 7.73165ZM25.8973 6.9646C26.0761 6.76118 26.3079 6.586 26.6174 6.44564L25.3784 3.71345C24.7106 4.01627 24.1242 4.43768 23.6438 4.98426L25.8973 6.9646ZM26.6305 6.43963C26.885 6.32123 27.2298 6.23864 27.7024 6.23864V3.23864C26.8796 3.23864 26.088 3.38331 25.3653 3.71946L26.6305 6.43963ZM27.7024 6.23864C28.2846 6.23864 28.8435 6.38993 29.4021 6.72018L30.9289 4.13777C29.9306 3.54757 28.8475 3.23864 27.7024 3.23864V6.23864ZM29.4062 6.7226C29.8887 7.00581 30.343 7.48413 30.7299 8.2669L33.4193 6.93764C32.8289 5.74314 32.0105 4.7726 30.9248 4.13535L29.4062 6.7226ZM30.7329 8.27309C31.0882 8.98363 31.3161 10.0147 31.3161 11.4545H34.3161C34.3161 9.7353 34.0496 8.19818 33.4162 6.93145L30.7329 8.27309ZM31.3161 11.4545C31.3161 12.8218 31.101 13.8372 30.7534 14.5703L33.464 15.8559C34.0595 14.6003 34.3161 13.11 34.3161 11.4545H31.3161ZM30.7504 14.5766C30.3839 15.3588 29.9354 15.8559 29.4403 16.1645L31.027 18.7105C32.1001 18.0418 32.9017 17.0559 33.4669 15.8495L30.7504 14.5766ZM29.4362 16.1671C28.9002 16.5035 28.3222 16.6705 27.6683 16.6705V19.6705C28.8781 19.6705 30.0103 19.3488 31.0312 18.7079L29.4362 16.1671ZM27.6683 16.6705C27.2169 16.6705 26.8676 16.5976 26.5946 16.4851L25.4523 19.2592C26.1452 19.5445 26.8925 19.6705 27.6683 19.6705V16.6705ZM26.6143 16.4934C26.3039 16.3604 26.0606 16.1919 25.8656 15.9936L23.7268 18.0973C24.2135 18.5922 24.7884 18.9748 25.4326 19.2509L26.6143 16.4934ZM25.8828 16.0114C25.6739 15.7919 25.5184 15.5512 25.4083 15.2829L22.6328 16.4216C22.8864 17.0397 23.248 17.5944 23.7095 18.0795L25.8828 16.0114ZM24.0206 14.3523H23.9524V17.3523H24.0206V14.3523ZM22.4524 15.8523V22.9091H25.4524V15.8523H22.4524ZM23.9524 21.4091H19.2479V24.4091H23.9524V21.4091ZM22.3501 11.4545C22.3501 12.2147 22.4479 12.9429 22.6831 13.6081L25.5115 12.6078C25.4172 12.3412 25.3501 11.9671 25.3501 11.4545H22.3501ZM22.6907 13.6289C22.9315 14.2791 23.3034 14.8762 23.8529 15.3341L25.7735 13.0295C25.7094 12.9761 25.604 12.8572 25.5039 12.587L22.6907 13.6289ZM23.8762 15.3531C24.4763 15.8332 25.1861 16.0568 25.9297 16.0568V13.0568C25.8097 13.0568 25.7751 13.0304 25.7503 13.0105L23.8762 15.3531ZM25.9297 16.0568C26.6641 16.0568 27.3752 15.8411 27.9742 15.3552L26.0841 13.0255C26.073 13.0344 26.0655 13.0384 26.0541 13.0422C26.0406 13.0466 26.0032 13.0568 25.9297 13.0568V16.0568ZM27.9766 15.3532C28.5446 14.8904 28.9164 14.2782 29.1457 13.6151L26.3103 12.6349C26.2214 12.8922 26.1273 12.9903 26.0816 13.0275L27.9766 15.3532ZM29.1422 13.6251C29.3783 12.9574 29.4751 12.2227 29.4751 11.4545H26.4751C26.4751 11.9819 26.4072 12.3608 26.3138 12.6249L29.1422 13.6251ZM29.4751 11.4545C29.4751 10.6872 29.3785 9.95261 29.1402 9.287L26.3158 10.2982C26.407 10.5531 26.4751 10.9264 26.4751 11.4545H29.4751ZM29.1475 9.3079C28.9194 8.63975 28.5454 8.01721 27.9635 7.55385L26.0947 9.90069C26.1265 9.92597 26.2184 10.0137 26.3085 10.2773L29.1475 9.3079ZM27.9873 7.57316C27.3886 7.07614 26.6728 6.85227 25.9297 6.85227V9.85227C25.9997 9.85227 26.0337 9.86214 26.0442 9.86571C26.0527 9.86862 26.0594 9.87173 26.071 9.88139L27.9873 7.57316ZM25.9297 6.85227C25.1861 6.85227 24.4763 7.07588 23.8762 7.55597L25.7503 9.89858C25.7751 9.87867 25.8097 9.85227 25.9297 9.85227V6.85227ZM23.8788 7.55385C23.3062 8.0098 22.9289 8.62038 22.6886 9.27724L25.506 10.308C25.6066 10.033 25.7065 9.93338 25.7476 9.90069L23.8788 7.55385ZM22.6851 9.287C22.4468 9.95261 22.3501 10.6872 22.3501 11.4545H25.3501C25.3501 10.9264 25.4183 10.5531 25.5095 10.2982L22.6851 9.287ZM37.446 17.3949L36.7113 18.7027L36.7169 18.7058L37.446 17.3949ZM35.1193 15.0256L33.7944 15.7288L33.796 15.7318L35.1193 15.0256ZM35.1193 7.96023L36.4426 8.6665L36.4443 8.66342L35.1193 7.96023ZM37.446 5.59091L38.1751 6.90181L38.1807 6.89866L37.446 5.59091ZM44.7415 5.59091L44.0068 6.89868L44.0124 6.9018L44.7415 5.59091ZM47.0682 7.96023L45.7432 8.66342L45.7449 8.6665L47.0682 7.96023ZM47.0682 15.0256L48.3915 15.7318L48.3931 15.7288L47.0682 15.0256ZM44.7415 17.3949L45.4706 18.7058L45.4762 18.7026L44.7415 17.3949ZM42.1591 14.3608L43.1756 15.4638L43.1756 15.4638L42.1591 14.3608ZM42.8324 13.2188L44.2603 13.6783L44.2603 13.6783L42.8324 13.2188ZM42.8324 9.69034L41.4045 10.1499L41.4061 10.1547L42.8324 9.69034ZM42.1591 8.5483L43.1756 7.44526L43.1756 7.44526L42.1591 8.5483ZM39.3551 9.69034L40.7814 10.1547L40.783 10.1499L39.3551 9.69034ZM39.3551 13.2188L40.783 12.7592L40.783 12.7592L39.3551 13.2188ZM41.0938 16.7386C39.871 16.7386 38.9181 16.4972 38.1751 16.084L36.7169 18.7058C37.9967 19.4175 39.4756 19.7386 41.0938 19.7386V16.7386ZM38.1807 16.0871C37.4158 15.6574 36.8459 15.0749 36.4426 14.3193L33.796 15.7318C34.4723 16.9989 35.4535 17.996 36.7113 18.7026L38.1807 16.0871ZM36.4443 14.3224C36.037 13.555 35.8097 12.6248 35.8097 11.4886H32.8097C32.8097 13.0342 33.1221 14.462 33.7944 15.7288L36.4443 14.3224ZM35.8097 11.4886C35.8097 10.3522 36.0371 9.42633 36.4426 8.6665L33.796 7.25396C33.122 8.51685 32.8097 9.94327 32.8097 11.4886H35.8097ZM36.4443 8.66342C36.8475 7.9036 37.4155 7.32427 38.1751 6.9018L36.7169 4.28002C35.4538 4.98254 34.4706 5.98276 33.7944 7.25704L36.4443 8.66342ZM38.1807 6.89866C38.9225 6.4819 39.8733 6.23864 41.0938 6.23864V3.23864C39.4733 3.23864 37.9922 3.56355 36.7113 4.28315L38.1807 6.89866ZM41.0938 6.23864C42.3142 6.23864 43.265 6.4819 44.0068 6.89866L45.4762 4.28315C44.1953 3.56355 42.7142 3.23864 41.0938 3.23864V6.23864ZM44.0124 6.9018C44.772 7.32427 45.34 7.9036 45.7432 8.66342L48.3931 7.25704C47.7169 5.98276 46.7337 4.98254 45.4706 4.28002L44.0124 6.9018ZM45.7449 8.6665C46.1504 9.42633 46.3778 10.3522 46.3778 11.4886H49.3778C49.3778 9.94327 49.0655 8.51685 48.3915 7.25396L45.7449 8.6665ZM46.3778 11.4886C46.3778 12.6248 46.1505 13.555 45.7432 14.3224L48.3931 15.7288C49.0654 14.462 49.3778 13.0342 49.3778 11.4886H46.3778ZM45.7449 14.3193C45.3416 15.0749 44.7717 15.6574 44.0068 16.0871L45.4762 18.7026C46.734 17.996 47.7152 16.9989 48.3915 15.7318L45.7449 14.3193ZM44.0124 16.084C43.2694 16.4972 42.3165 16.7386 41.0938 16.7386V19.7386C42.7119 19.7386 44.1908 19.4175 45.4706 18.7058L44.0124 16.084ZM41.1278 16.2614C41.8983 16.2614 42.606 15.9888 43.1756 15.4638L41.1426 13.2578C41.1332 13.2664 41.1289 13.2689 41.13 13.2682C41.1313 13.2674 41.1351 13.2652 41.1408 13.263C41.1465 13.2608 41.1502 13.2601 41.1502 13.2601C41.15 13.2601 41.1431 13.2614 41.1278 13.2614V16.2614ZM43.1756 15.4638C43.7068 14.9743 44.0463 14.3431 44.2603 13.6783L41.4045 12.7592C41.3003 13.083 41.1909 13.2132 41.1426 13.2578L43.1756 15.4638ZM44.2603 13.6783C44.4794 12.9973 44.571 12.2465 44.571 11.4545H41.571C41.571 12.0263 41.5035 12.4515 41.4045 12.7592L44.2603 13.6783ZM44.571 11.4545C44.571 10.6591 44.4799 9.90551 44.2587 9.22596L41.4061 10.1547C41.503 10.4524 41.571 10.875 41.571 11.4545H44.571ZM44.2603 9.2308C44.0463 8.56596 43.7068 7.93481 43.1756 7.44526L41.1426 9.65133C41.1909 9.69587 41.3003 9.82608 41.4045 10.1499L44.2603 9.2308ZM43.1756 7.44526C42.606 6.92033 41.8983 6.64773 41.1278 6.64773V9.64773C41.1431 9.64773 41.15 9.64898 41.1502 9.64902C41.1502 9.64902 41.1465 9.6483 41.1408 9.64609C41.1351 9.64388 41.1313 9.64166 41.13 9.64087C41.1289 9.6402 41.1332 9.64273 41.1426 9.65133L43.1756 7.44526ZM41.1278 6.64773C40.3585 6.64773 39.6389 6.90399 39.0502 7.42601L41.0407 9.67058C41.0508 9.66157 41.057 9.65762 41.0591 9.65636C41.0611 9.65517 41.0619 9.65487 41.0625 9.65463C41.0632 9.65436 41.0673 9.65287 41.0764 9.65132C41.0857 9.64974 41.1023 9.64773 41.1278 9.64773V6.64773ZM39.0502 7.42601C38.4978 7.91589 38.1452 8.55351 37.9272 9.2308L40.783 10.1499C40.8832 9.83854 40.9908 9.71479 41.0407 9.67058L39.0502 7.42601ZM37.9288 9.22596C37.7076 9.90551 37.6165 10.6591 37.6165 11.4545H40.6165C40.6165 10.875 40.6845 10.4524 40.7814 10.1547L37.9288 9.22596ZM37.6165 11.4545C37.6165 12.2465 37.7081 12.9973 37.9272 13.6783L40.783 12.7592C40.684 12.4515 40.6165 12.0263 40.6165 11.4545H37.6165ZM37.9272 13.6783C38.1452 14.3556 38.4978 14.9932 39.0502 15.4831L41.0407 13.2385C40.9908 13.1943 40.8832 13.0706 40.783 12.7592L37.9272 13.6783ZM39.0502 15.4831C39.6389 16.0051 40.3585 16.2614 41.1278 16.2614V13.2614C41.1023 13.2614 41.0857 13.2594 41.0764 13.2578C41.0673 13.2562 41.0632 13.2547 41.0625 13.2545C41.0619 13.2542 41.0611 13.2539 41.0591 13.2527C41.057 13.2515 41.0508 13.2475 41.0407 13.2385L39.0502 15.4831ZM48.7876 8.42045H47.2876V9.92045H48.7876V8.42045ZM48.7876 4.90909V3.40909H47.2876V4.90909H48.7876ZM61.4695 4.90909H62.9695V3.40909H61.4695V4.90909ZM61.4695 8.42045V9.92045H62.9695V8.42045H61.4695ZM57.3104 8.42045V6.92045H55.8104V8.42045H57.3104ZM57.3104 18V19.5H58.8104V18H57.3104ZM52.8786 18H51.3786V19.5H52.8786V18ZM52.8786 8.42045H54.3786V6.92045H52.8786V8.42045ZM50.2876 8.42045V4.90909H47.2876V8.42045H50.2876ZM48.7876 6.40909H61.4695V3.40909H48.7876V6.40909ZM59.9695 4.90909V8.42045H62.9695V4.90909H59.9695ZM61.4695 6.92045H57.3104V9.92045H61.4695V6.92045ZM55.8104 8.42045V18H58.8104V8.42045H55.8104ZM57.3104 16.5H52.8786V19.5H57.3104V16.5ZM54.3786 18V8.42045H51.3786V18H54.3786ZM52.8786 6.92045H48.7876V9.92045H52.8786V6.92045ZM65.5476 17.4375L64.8382 18.7592L64.8471 18.7639L65.5476 17.4375ZM63.2209 15.1193L61.8975 15.8256L61.9023 15.8345L63.2209 15.1193ZM63.2294 7.94318L64.5496 8.65522L64.5496 8.65522L63.2294 7.94318ZM65.5391 5.58239L66.2776 6.88795L66.2776 6.88795L65.5391 5.58239ZM71.7436 5.19886L72.2801 3.79808L72.2801 3.79808L71.7436 5.19886ZM73.7976 6.53693L72.7214 7.58182L72.7265 7.58704L73.7976 6.53693ZM75.1101 8.65057L73.7032 9.17091L73.7032 9.17091L75.1101 8.65057ZM75.5703 12.5455V14.0455H77.0703V12.5455H75.5703ZM63.8771 12.5455H62.3771V14.0455H63.8771V12.5455ZM63.8771 9.95455V8.45455H62.3771V9.95455H63.8771ZM71.2408 9.95455V11.4545H72.7637L72.7406 9.93182L71.2408 9.95455ZM70.951 8.96591L69.6804 9.76315L69.6896 9.77777L69.6991 9.79217L70.951 8.96591ZM70.2095 8.29261L69.4998 9.6141L69.5143 9.62189L69.529 9.62936L70.2095 8.29261ZM68.1129 8.29261L68.7837 9.63425L68.7933 9.6295L68.8027 9.6246L68.1129 8.29261ZM67.3459 8.95739L66.1055 8.11392L66.0997 8.12248L66.094 8.13112L67.3459 8.95739ZM67.0476 9.95455L65.5483 9.90979L65.5476 9.93216V9.95455H67.0476ZM67.3118 13.875L65.9889 14.5821L65.9889 14.5821L67.3118 13.875ZM68.0703 14.6506L67.3285 15.9543L67.3285 15.9543L68.0703 14.6506ZM70.1499 14.7955L69.6755 13.3724L69.6665 13.3755L70.1499 14.7955ZM70.8487 14.4034L71.8412 15.5282L71.8503 15.5201L71.8594 15.5118L70.8487 14.4034ZM71.2749 13.7727V12.2727H70.2325L69.869 13.2496L71.2749 13.7727ZM75.5703 13.7727L77.0509 14.0133L77.3337 12.2727H75.5703V13.7727ZM74.522 16.142L75.6768 17.0994L75.6808 17.0946L74.522 16.142ZM72.3317 17.6932L72.8918 19.0847L72.8962 19.0829L72.3317 17.6932ZM69.1612 16.7386C67.9541 16.7386 67.0007 16.5085 66.248 16.1111L64.8471 18.7639C66.1172 19.4346 67.5729 19.7386 69.1612 19.7386V16.7386ZM66.257 16.1158C65.5098 15.7148 64.9457 15.1532 64.5394 14.4042L61.9023 15.8345C62.587 17.0968 63.574 18.0806 64.8382 18.7592L66.257 16.1158ZM64.5442 14.413C64.1441 13.6634 63.9112 12.7071 63.9112 11.4886H60.9112C60.9112 13.0884 61.2181 14.5525 61.8976 15.8256L64.5442 14.413ZM63.9112 11.4886C63.9112 10.3409 64.1414 9.41208 64.5496 8.65522L61.9092 7.23115C61.2265 8.49701 60.9112 9.93181 60.9112 11.4886H63.9112ZM64.5496 8.65522C64.9618 7.89099 65.5308 7.31048 66.2776 6.88795L64.8005 4.27682C63.5587 4.9793 62.5879 5.97265 61.9092 7.23115L64.5496 8.65522ZM66.2776 6.88795C67.0085 6.4745 67.9178 6.23864 69.0589 6.23864V3.23864C67.4955 3.23864 66.0583 3.56527 64.8005 4.27682L66.2776 6.88795ZM69.0589 6.23864C69.8918 6.23864 70.6012 6.36761 71.2071 6.59965L72.2801 3.79808C71.2837 3.41648 70.2034 3.23864 69.0589 3.23864V6.23864ZM71.2071 6.59965C71.8154 6.8326 72.3129 7.16111 72.7214 7.5818L74.8738 5.49206C74.1459 4.7423 73.2741 4.17876 72.2801 3.79808L71.2071 6.59965ZM72.7265 7.58704C73.1338 8.0025 73.4631 8.52165 73.7032 9.17091L76.5169 8.13022C76.1434 7.1204 75.5977 6.23045 74.8687 5.48682L72.7265 7.58704ZM73.7032 9.17091C73.9387 9.80747 74.0703 10.5618 74.0703 11.4545H77.0703C77.0703 10.2677 76.8951 9.15275 76.5169 8.13022L73.7032 9.17091ZM74.0703 11.4545V12.5455H77.0703V11.4545H74.0703ZM75.5703 11.0455H63.8771V14.0455H75.5703V11.0455ZM65.3771 12.5455V9.95455H62.3771V12.5455H65.3771ZM63.8771 11.4545H71.2408V8.45455H63.8771V11.4545ZM72.7406 9.93182C72.731 9.30099 72.5638 8.68647 72.2029 8.13965L69.6991 9.79217C69.7132 9.81353 69.7391 9.8581 69.7409 9.97727L72.7406 9.93182ZM72.2216 8.16867C71.8918 7.64301 71.4381 7.23486 70.89 6.95587L69.529 9.62936C69.606 9.66855 69.6466 9.70926 69.6804 9.76315L72.2216 8.16867ZM70.9192 6.97112C70.368 6.67508 69.7694 6.54545 69.1612 6.54545V9.54545C69.3372 9.54545 69.4374 9.5806 69.4998 9.6141L70.9192 6.97112ZM69.1612 6.54545C68.5559 6.54545 67.9678 6.67858 67.4231 6.96062L68.8027 9.6246C68.8944 9.5771 69.0052 9.54545 69.1612 9.54545V6.54545ZM67.4421 6.95097C66.9031 7.22048 66.4481 7.61013 66.1055 8.11392L68.5863 9.80085C68.6301 9.73646 68.6864 9.68293 68.7837 9.63425L67.4421 6.95097ZM66.094 8.13112C65.7353 8.67457 65.5669 9.28473 65.5483 9.90979L68.5469 9.9993C68.551 9.863 68.5815 9.80839 68.5978 9.78365L66.094 8.13112ZM65.5476 9.95455V12.75H68.5476V9.95455H65.5476ZM65.5476 12.75C65.5476 13.3858 65.6826 14.0089 65.9889 14.5821L68.6347 13.1679C68.5887 13.082 68.5476 12.9551 68.5476 12.75H65.5476ZM65.9889 14.5821C66.3006 15.1652 66.7567 15.6289 67.3285 15.9543L68.8121 13.3468C68.7249 13.2972 68.6753 13.2439 68.6347 13.1679L65.9889 14.5821ZM67.3285 15.9543C67.9305 16.2968 68.5965 16.4318 69.2635 16.4318V13.4318C68.9986 13.4318 68.8693 13.3793 68.8121 13.3468L67.3285 15.9543ZM69.2635 16.4318C69.7279 16.4318 70.1894 16.3665 70.6333 16.2154L69.6665 13.3755C69.5762 13.4062 69.4469 13.4318 69.2635 13.4318V16.4318ZM70.6242 16.2185C71.0657 16.0713 71.4805 15.8464 71.8412 15.5282L69.8563 13.2787C69.8306 13.3013 69.7794 13.3378 69.6755 13.3724L70.6242 16.2185ZM71.8594 15.5118C72.2285 15.1753 72.5063 14.7646 72.6807 14.2958L69.869 13.2496C69.8616 13.2695 69.8554 13.2792 69.8381 13.295L71.8594 15.5118ZM71.2749 15.2727H75.5703V12.2727H71.2749V15.2727ZM74.0897 13.5321C73.9818 14.1963 73.7357 14.7364 73.3633 15.1895L75.6808 17.0946C76.4106 16.2068 76.8634 15.1674 77.0509 14.0133L74.0897 13.5321ZM73.3673 15.1847C72.9946 15.6342 72.4784 16.0145 71.7671 16.3035L72.8962 19.0829C74.0031 18.6332 74.9472 17.9795 75.6768 17.0994L73.3673 15.1847ZM71.7716 16.3017C71.0837 16.5786 70.2245 16.7386 69.1612 16.7386V19.7386C70.5184 19.7386 71.7729 19.5351 72.8918 19.0847L71.7716 16.3017ZM81.9219 12H80.4219L83.2557 12.6862L81.9219 12ZM85.5696 4.90909V3.40909H84.6544L84.2357 4.22292L85.5696 4.90909ZM90.0014 4.90909H91.5014V3.40909H90.0014V4.90909ZM90.0014 18V19.5H91.5014V18H90.0014ZM85.5696 18H84.0696V19.5H85.5696V18ZM85.5696 10.875H87.0696L84.2344 10.1914L85.5696 10.875ZM81.9219 18V19.5H82.8391L83.2571 18.6836L81.9219 18ZM77.4901 18H75.9901V19.5H77.4901V18ZM77.4901 4.90909V3.40909H75.9901V4.90909H77.4901ZM81.9219 4.90909H83.4219V3.40909H81.9219V4.90909ZM85.4332 0.204545V-1.29546H83.9558L83.9334 0.181819L85.4332 0.204545ZM88.3991 0.204545L89.8991 0.212237L89.9069 -1.29546H88.3991V0.204545ZM87.1293 2.86364L88.0546 4.04423L88.0595 4.04035L87.1293 2.86364ZM80.3111 2.86364L79.3808 4.04036L79.3858 4.04422L80.3111 2.86364ZM79.0582 0.204545V-1.29546H77.5659L77.5583 0.196852L79.0582 0.204545ZM81.9901 0.204545L83.4899 0.228352L83.5141 -1.29546H81.9901V0.204545ZM82.3736 1.19318L81.2408 2.17639L81.2506 2.18779L81.2608 2.19899L82.3736 1.19318ZM85.0327 1.2017L86.1465 2.20636L86.1465 2.20636L85.0327 1.2017ZM83.2557 12.6862L86.9035 5.59526L84.2357 4.22292L80.588 11.3138L83.2557 12.6862ZM85.5696 6.40909H90.0014V3.40909H85.5696V6.40909ZM88.5014 4.90909V18H91.5014V4.90909H88.5014ZM90.0014 16.5H85.5696V19.5H90.0014V16.5ZM87.0696 18V10.875H84.0696V18H87.0696ZM84.2344 10.1914L80.5867 17.3164L83.2571 18.6836L86.9048 11.5586L84.2344 10.1914ZM81.9219 16.5H77.4901V19.5H81.9219V16.5ZM78.9901 18V4.90909H75.9901V18H78.9901ZM77.4901 6.40909H81.9219V3.40909H77.4901V6.40909ZM80.4219 4.90909V12H83.4219V4.90909H80.4219ZM85.4332 1.70454H88.3991V-1.29546H85.4332V1.70454ZM86.8992 0.196852C86.8957 0.866578 86.6685 1.31581 86.199 1.68692L88.0595 4.04035C89.2719 3.08191 89.8912 1.75842 89.8991 0.212237L86.8992 0.196852ZM86.2039 1.68305C85.7035 2.07529 84.9314 2.35227 83.7287 2.35227V5.35227C85.3782 5.35227 86.8732 4.97017 88.0546 4.04422L86.2039 1.68305ZM83.7287 2.35227C82.5113 2.35227 81.7349 2.0738 81.2364 1.68305L79.3858 4.04422C80.569 4.97166 82.071 5.35227 83.7287 5.35227V2.35227ZM81.2413 1.68692C80.7763 1.31933 80.5548 0.876844 80.5582 0.212237L77.5583 0.196852C77.5503 1.74816 78.164 3.0784 79.3808 4.04035L81.2413 1.68692ZM79.0582 1.70454H81.9901V-1.29546H79.0582V1.70454ZM80.4902 0.180737C80.478 0.951 80.7669 1.63042 81.2408 2.17639L83.5064 0.209971C83.4902 0.191268 83.4821 0.179179 83.4791 0.174252C83.4762 0.169535 83.4775 0.170752 83.4801 0.177664C83.4829 0.18475 83.4858 0.194335 83.4877 0.205266C83.4896 0.216154 83.4899 0.224355 83.4899 0.228352L80.4902 0.180737ZM81.2608 2.19899C81.9443 2.95521 82.9162 3.13636 83.7287 3.13636V0.136364C83.5187 0.136364 83.413 0.111027 83.3789 0.0998761C83.3534 0.0915181 83.4136 0.106812 83.4864 0.187372L81.2608 2.19899ZM83.7287 3.13636C84.527 3.13636 85.4746 2.95133 86.1465 2.20636L83.9188 0.197051C83.9516 0.160655 83.9844 0.135361 84.0096 0.119579C84.0339 0.104414 84.0455 0.101601 84.0363 0.104674C84.0127 0.112555 83.9209 0.136364 83.7287 0.136364V3.13636ZM86.1465 2.20636C86.6404 1.65876 86.9216 0.981288 86.9331 0.22727L83.9334 0.181819C83.9333 0.189549 83.9326 0.191175 83.9332 0.188178C83.9338 0.18505 83.9351 0.180544 83.9369 0.175948C83.9388 0.171415 83.9398 0.17013 83.9383 0.172569C83.9366 0.175182 83.931 0.183489 83.9188 0.197052L86.1465 2.20636ZM93.3849 0.545454V-0.954546H91.8849V0.545454H93.3849ZM97.9531 0.545454H99.4531V-0.954546H97.9531V0.545454ZM98.2344 7.37216L96.9151 8.08589L96.9196 8.0942L96.9242 8.10245L98.2344 7.37216ZM99.1974 8.1392L98.6805 9.54734L98.6862 9.54941L99.1974 8.1392ZM101.746 8.37784L101.773 9.8776L101.785 9.87737L101.798 9.87692L101.746 8.37784ZM102.794 8.33523L102.862 9.83368L102.873 9.83317L102.885 9.83248L102.794 8.33523ZM103.825 8.25852L103.961 9.75236L103.973 9.75127L103.985 9.74999L103.825 8.25852ZM104.499 8.14773H105.999V6.12328L104.062 6.71272L104.499 8.14773ZM104.499 11.7273L104.989 13.1448L105.999 12.7954V11.7273H104.499ZM103.766 11.8636L103.915 13.3562L103.927 13.355L103.939 13.3535L103.766 11.8636ZM102.666 11.9574L102.754 13.4548L102.764 13.4542L102.775 13.4535L102.666 11.9574ZM101.626 12.017L101.682 13.516L101.696 13.5155L101.71 13.5147L101.626 12.017ZM97.0241 11.3778L97.5561 9.97534L97.5561 9.97534L97.0241 11.3778ZM94.3395 9.39205L95.558 8.51724L95.558 8.51723L94.3395 9.39205ZM103.612 0.545454V-0.954546H102.112V0.545454H103.612ZM108.214 0.545454H109.714V-0.954546H108.214V0.545454ZM108.214 18V19.5H109.714V18H108.214ZM103.612 18H102.112V19.5H103.612V18ZM93.3849 2.04545H97.9531V-0.954546H93.3849V2.04545ZM96.4531 0.545454V6.03409H99.4531V0.545454H96.4531ZM96.4531 6.03409C96.4531 6.7379 96.5722 7.45208 96.9151 8.08589L99.5537 6.65843C99.5216 6.59905 99.4531 6.42119 99.4531 6.03409H96.4531ZM96.9242 8.10245C97.3263 8.8239 97.9669 9.28535 98.6805 9.54733L99.7143 6.73108C99.6164 6.69514 99.5705 6.66327 99.5545 6.65054C99.5504 6.64722 99.5477 6.64479 99.5462 6.64334C99.5447 6.6419 99.5441 6.64115 99.544 6.64109C99.544 6.64103 99.5442 6.64126 99.5444 6.64167C99.5447 6.64208 99.5448 6.64221 99.5446 6.64187L96.9242 8.10245ZM98.6862 9.54941C99.3747 9.79898 100.192 9.88636 101.055 9.88636V6.88636C100.351 6.88636 99.9293 6.80897 99.7086 6.729L98.6862 9.54941ZM101.055 9.88636C101.212 9.88636 101.454 9.8833 101.773 9.8776L101.719 6.87808C101.402 6.88375 101.183 6.88636 101.055 6.88636V9.88636ZM101.798 9.87692C102.128 9.86535 102.483 9.85092 102.862 9.83368L102.726 6.83677C102.355 6.85362 102.011 6.86761 101.693 6.87876L101.798 9.87692ZM102.885 9.83248C103.272 9.80901 103.631 9.78237 103.961 9.75236L103.689 6.76468C103.395 6.79149 103.066 6.81599 102.703 6.83797L102.885 9.83248ZM103.985 9.74999C104.306 9.7156 104.656 9.66776 104.935 9.58274L104.062 6.71272C104.088 6.70488 104.072 6.71139 103.989 6.72516C103.913 6.73763 103.807 6.75191 103.665 6.76706L103.985 9.74999ZM102.999 8.14773V11.7273H105.999V8.14773H102.999ZM104.008 10.3098C104.033 10.301 104.016 10.309 103.93 10.325C103.851 10.3397 103.74 10.3564 103.592 10.3737L103.939 13.3535C104.292 13.3124 104.676 13.2532 104.989 13.1448L104.008 10.3098ZM103.616 10.3711C103.291 10.4036 102.938 10.4337 102.558 10.4613L102.775 13.4535C103.178 13.4242 103.559 13.3918 103.915 13.3562L103.616 10.3711ZM102.578 10.46C102.193 10.4826 101.848 10.5024 101.543 10.5194L101.71 13.5147C102.018 13.4976 102.367 13.4776 102.754 13.4548L102.578 10.46ZM101.571 10.5181C101.419 10.5237 101.299 10.5278 101.209 10.5305C101.164 10.5318 101.128 10.5328 101.1 10.5334C101.087 10.5337 101.076 10.5339 101.068 10.534C101.064 10.534 101.061 10.5341 101.059 10.5341C101.056 10.5341 101.055 10.5341 101.055 10.5341V13.5341C101.164 13.5341 101.386 13.527 101.682 13.516L101.571 10.5181ZM101.055 10.5341C99.6604 10.5341 98.5038 10.3348 97.5561 9.97534L96.4922 12.7803C97.8513 13.2959 99.3822 13.5341 101.055 13.5341V10.5341ZM97.5561 9.97534C96.6413 9.62833 96.0005 9.13367 95.558 8.51724L93.121 10.2669C93.9512 11.4232 95.1002 12.2524 96.4922 12.7803L97.5561 9.97534ZM95.558 8.51723C95.1445 7.94137 94.8849 7.14856 94.8849 6.03409H91.8849C91.8849 7.62417 92.2617 9.07 93.121 10.2669L95.558 8.51723ZM94.8849 6.03409V0.545454H91.8849V6.03409H94.8849ZM103.612 2.04545H108.214V-0.954546H103.612V2.04545ZM106.714 0.545454V18H109.714V0.545454H106.714ZM108.214 16.5H103.612V19.5H108.214V16.5ZM105.112 18V0.545454H102.112V18H105.112ZM112.977 17.7955L112.375 19.1697L112.383 19.1729L112.39 19.1761L112.977 17.7955ZM111.477 16.5341L110.217 17.3484L110.217 17.3484L111.477 16.5341ZM111.298 12.554L112.648 13.2065L112.651 13.2006L111.298 12.554ZM112.32 11.3011L113.213 12.5067L113.213 12.5067L112.32 11.3011ZM113.846 10.5597L113.426 9.1195L113.423 9.12061L113.846 10.5597ZM115.738 10.2273L115.851 11.723L115.854 11.7228L115.738 10.2273ZM117.502 10.0227L117.767 11.4991L117.775 11.4978L117.782 11.4964L117.502 10.0227ZM118.474 9.6733L119.368 10.8774L119.379 10.8693L119.39 10.861L118.474 9.6733ZM118.38 8.25L117.523 9.48136L117.523 9.48136L118.38 8.25ZM116.275 8.27557L117.13 9.50796L117.135 9.50442L116.275 8.27557ZM115.772 9.17045V10.6705H117.076L117.257 9.37966L115.772 9.17045ZM111.442 9.17045L109.946 9.06358L109.832 10.6705H111.442V9.17045ZM112.201 6.97159L110.956 6.13472L110.955 6.1371L112.201 6.97159ZM114.187 5.35227L114.818 6.71293L114.825 6.7095L114.187 5.35227ZM119.965 5.07102L119.537 6.5087L119.547 6.51164L119.965 5.07102ZM121.866 5.98295L120.966 7.18298L120.974 7.18922L121.866 5.98295ZM123.059 7.34659L121.729 8.04044L121.734 8.04912L121.738 8.05774L123.059 7.34659ZM123.477 18V19.5H124.977V18H123.477ZM119.079 18H117.579V19.5H119.079V18ZM119.079 16.1591H120.579V14.6591H119.079V16.1591ZM118.977 16.1591V14.6591H118.078L117.654 15.4516L118.977 16.1591ZM118.022 17.3438L117.083 16.1741L117.074 16.1812L118.022 17.3438ZM116.752 18L116.34 16.5577L116.335 16.559L116.752 18ZM117.732 15.017L117.101 13.6565L117.091 13.6609L117.732 15.017ZM118.508 14.3778L117.287 13.506L117.287 13.506L118.508 14.3778ZM118.806 12.2727H120.306V10.0384L118.238 10.8844L118.806 12.2727ZM118.406 12.4176L117.948 10.989L117.94 10.9917L117.931 10.9946L118.406 12.4176ZM117.962 12.5455L117.599 11.0902L117.586 11.0935L117.962 12.5455ZM117.468 12.6562L117.183 11.1836L117.174 11.1854L117.468 12.6562ZM116.931 12.75L116.706 11.2669L116.7 11.268L116.931 12.75ZM116.036 13.0312L116.759 14.3456L116.77 14.3395L116.036 13.0312ZM115.525 13.5L114.242 12.7225L114.235 12.7342L115.525 13.5ZM115.746 14.9489L116.651 13.7521L116.651 13.7521L115.746 14.9489ZM115.192 16.7045C114.52 16.7045 113.987 16.5949 113.563 16.4148L112.39 19.1761C113.25 19.5415 114.195 19.7045 115.192 19.7045V16.7045ZM113.578 16.4212C113.201 16.2562 112.934 16.0255 112.736 15.7197L110.217 17.3484C110.746 18.1676 111.48 18.7779 112.375 19.1697L113.578 16.4212ZM112.736 15.7197C112.57 15.4625 112.431 15.0516 112.431 14.3864H109.431C109.431 15.4597 109.656 16.4807 110.217 17.3484L112.736 15.7197ZM112.431 14.3864C112.431 13.8363 112.525 13.4607 112.648 13.2065L109.947 11.9014C109.581 12.6586 109.431 13.5046 109.431 14.3864H112.431ZM112.651 13.2006C112.794 12.901 112.981 12.6787 113.213 12.5067L111.428 10.0955C110.785 10.5713 110.29 11.1842 109.944 11.9073L112.651 13.2006ZM113.213 12.5067C113.494 12.2985 113.84 12.1249 114.269 11.9987L113.423 9.12061C112.693 9.33531 112.022 9.65605 111.428 10.0955L113.213 12.5067ZM114.265 11.9998C114.74 11.8615 115.267 11.7672 115.851 11.723L115.625 8.73154C114.856 8.78966 114.122 8.91691 113.426 9.1195L114.265 11.9998ZM115.854 11.7228C116.61 11.6642 117.254 11.5913 117.767 11.4991L117.237 8.54632C116.864 8.61326 116.332 8.67673 115.622 8.73176L115.854 11.7228ZM117.782 11.4964C118.296 11.3988 118.892 11.2311 119.368 10.8774L117.579 8.46918C117.634 8.42865 117.647 8.43368 117.574 8.45996C117.506 8.4845 117.393 8.5167 117.222 8.54906L117.782 11.4964ZM119.39 10.861C119.955 10.4251 120.272 9.78569 120.272 9.06818H117.272C117.272 8.98916 117.289 8.87129 117.352 8.74373C117.415 8.6164 117.497 8.53221 117.558 8.48562L119.39 10.861ZM120.272 9.06818V9.03409H117.272V9.06818H120.272ZM120.272 9.03409C120.272 8.24313 119.934 7.50347 119.237 7.01864L117.523 9.48136C117.467 9.4421 117.389 9.36675 117.332 9.25321C117.278 9.14352 117.272 9.05776 117.272 9.03409H120.272ZM119.237 7.01864C118.661 6.61807 118.003 6.47727 117.374 6.47727V9.47727C117.469 9.47727 117.521 9.48792 117.54 9.49316C117.557 9.49771 117.546 9.49716 117.523 9.48136L119.237 7.01864ZM117.374 6.47727C116.708 6.47727 116.016 6.62589 115.415 7.04672L117.135 9.50442C117.102 9.52752 117.143 9.47727 117.374 9.47727V6.47727ZM115.42 7.04319C114.729 7.52232 114.389 8.23453 114.287 8.96125L117.257 9.37966C117.265 9.32824 117.271 9.33771 117.248 9.37898C117.236 9.39953 117.22 9.42369 117.198 9.44821C117.175 9.47278 117.152 9.49278 117.13 9.50795L115.42 7.04319ZM115.772 7.67045H111.442V10.6705H115.772V7.67045ZM112.939 9.27732C112.977 8.74518 113.142 8.26249 113.447 7.80608L110.955 6.1371C110.362 7.0216 110.022 8.00482 109.946 9.06358L112.939 9.27732ZM113.446 7.80846C113.722 7.39703 114.153 7.02158 114.818 6.71291L113.555 3.99164C112.482 4.48979 111.589 5.19388 110.956 6.13472L113.446 7.80846ZM114.825 6.7095C115.437 6.42156 116.288 6.23864 117.442 6.23864V3.23864C115.995 3.23864 114.675 3.4648 113.548 3.99504L114.825 6.7095ZM117.442 6.23864C118.264 6.23864 118.957 6.33594 119.537 6.50867L120.393 3.63338C119.485 3.36292 118.496 3.23864 117.442 3.23864V6.23864ZM119.547 6.51164C120.149 6.68628 120.612 6.91771 120.966 7.18295L122.766 4.78295C122.074 4.26411 121.27 3.88759 120.383 3.63041L119.547 6.51164ZM120.974 7.18922C121.333 7.4543 121.572 7.73953 121.729 8.04044L124.389 6.65274C124 5.9082 123.444 5.28433 122.757 4.77669L120.974 7.18922ZM121.738 8.05774C121.895 8.34836 121.977 8.66528 121.977 9.03409H124.977C124.977 8.18699 124.78 7.37892 124.38 6.63544L121.738 8.05774ZM121.977 9.03409V18H124.977V9.03409H121.977ZM123.477 16.5H119.079V19.5H123.477V16.5ZM120.579 18V16.1591H117.579V18H120.579ZM119.079 14.6591H118.977V17.6591H119.079V14.6591ZM117.654 15.4516C117.473 15.7889 117.278 16.0175 117.083 16.1742L118.961 18.5133C119.516 18.0678 119.957 17.5066 120.299 16.8666L117.654 15.4516ZM117.074 16.1812C116.869 16.3484 116.63 16.4749 116.34 16.5577L117.164 19.4423C117.829 19.2524 118.436 18.9414 118.97 18.5063L117.074 16.1812ZM116.335 16.559C116.019 16.6506 115.641 16.7045 115.192 16.7045V19.7045C115.88 19.7045 116.542 19.6221 117.169 19.441L116.335 16.559ZM116.727 16.7386C117.298 16.7386 117.853 16.619 118.373 16.3732L117.091 13.6609C116.986 13.7105 116.871 13.7386 116.727 13.7386V16.7386ZM118.364 16.3776C118.911 16.1235 119.375 15.7447 119.728 15.2497L117.287 13.506C117.243 13.5678 117.19 13.6151 117.101 13.6565L118.364 16.3776ZM119.728 15.2497C120.137 14.6773 120.306 14.0215 120.306 13.3636H117.306C117.306 13.4373 117.297 13.477 117.292 13.4922C117.29 13.5 117.288 13.5037 117.288 13.5045C117.288 13.5053 117.288 13.5055 117.287 13.506L119.728 15.2497ZM120.306 13.3636V12.2727H117.306V13.3636H120.306ZM118.238 10.8844C118.153 10.9192 118.057 10.9543 117.948 10.989L118.863 13.8462C119.038 13.79 119.209 13.7285 119.374 13.661L118.238 10.8844ZM117.931 10.9946C117.836 11.0264 117.725 11.0585 117.599 11.0902L118.326 14.0007C118.517 13.9529 118.702 13.8998 118.88 13.8406L117.931 10.9946ZM117.586 11.0935C117.466 11.1244 117.332 11.1547 117.183 11.1836L117.753 14.1289C117.956 14.0896 118.152 14.046 118.339 13.9974L117.586 11.0935ZM117.174 11.1854C117.028 11.2145 116.873 11.2417 116.706 11.2669L117.156 14.2331C117.364 14.2015 117.567 14.1662 117.762 14.1271L117.174 11.1854ZM116.7 11.268C116.221 11.3427 115.738 11.4788 115.302 11.723L116.77 14.3395C116.801 14.3223 116.914 14.271 117.163 14.232L116.7 11.268ZM115.313 11.7169C114.898 11.9454 114.515 12.272 114.242 12.7225L116.808 14.2775C116.787 14.3118 116.765 14.3352 116.752 14.3479C116.739 14.3598 116.738 14.3573 116.759 14.3456L115.313 11.7169ZM114.235 12.7342C113.979 13.1651 113.863 13.6377 113.863 14.1136H116.863C116.863 14.1196 116.862 14.141 116.854 14.1725C116.845 14.2047 116.832 14.237 116.815 14.2658L114.235 12.7342ZM113.863 14.1136C113.863 14.8752 114.157 15.628 114.842 16.1457L116.651 13.7521C116.711 13.7978 116.778 13.8727 116.822 13.9692C116.863 14.0597 116.863 14.1193 116.863 14.1136H113.863ZM114.842 16.1457C115.416 16.579 116.083 16.7386 116.727 16.7386V13.7386C116.648 13.7386 116.613 13.7291 116.609 13.7277C116.606 13.7271 116.611 13.7283 116.62 13.7327C116.629 13.7372 116.64 13.7436 116.651 13.7521L114.842 16.1457ZM124.725 8.42045H123.225V9.92045H124.725V8.42045ZM124.725 4.90909V3.40909H123.225V4.90909H124.725ZM137.407 4.90909H138.907V3.40909H137.407V4.90909ZM137.407 8.42045V9.92045H138.907V8.42045H137.407ZM133.248 8.42045V6.92045H131.748V8.42045H133.248ZM133.248 18V19.5H134.748V18H133.248ZM128.816 18H127.316V19.5H128.816V18ZM128.816 8.42045H130.316V6.92045H128.816V8.42045ZM126.225 8.42045V4.90909H123.225V8.42045H126.225ZM124.725 6.40909H137.407V3.40909H124.725V6.40909ZM135.907 4.90909V8.42045H138.907V4.90909H135.907ZM137.407 6.92045H133.248V9.92045H137.407V6.92045ZM131.748 8.42045V18H134.748V8.42045H131.748ZM133.248 16.5H128.816V19.5H133.248V16.5ZM130.316 18V8.42045H127.316V18H130.316ZM128.816 6.92045H124.725V9.92045H128.816V6.92045Z" fill="black" mask="url(#path-1-outside-1_4_11)"/>
</svg>
